<?xml version="1.0" encoding="UTF-8" standalone="no"?>
<svg
   xmlns:dc="http://purl.org/dc/elements/1.1/"
   xmlns:cc="http://creativecommons.org/ns#"
   xmlns:rdf="http://www.w3.org/1999/02/22-rdf-syntax-ns#"
   xmlns:svg="http://www.w3.org/2000/svg"
   xmlns="http://www.w3.org/2000/svg"
   xmlns:sodipodi="http://sodipodi.sourceforge.net/DTD/sodipodi-0.dtd"
   xmlns:inkscape="http://www.inkscape.org/namespaces/inkscape"
   height="120"
   id="Layer_1"
   version="1.1"
   viewBox="0 0 120 120"
   width="120"
   xml:space="preserve"
   inkscape:version="0.91 r13725"
   sodipodi:docname="bronse.svg"><metadata
     id="metadata67"><rdf:RDF><cc:Work
         rdf:about=""><dc:format>image/svg+xml</dc:format><dc:type
           rdf:resource="http://purl.org/dc/dcmitype/StillImage" /><dc:title></dc:title></cc:Work></rdf:RDF></metadata><defs
     id="defs65" /><sodipodi:namedview
     pagecolor="#ffffff"
     bordercolor="#666666"
     borderopacity="1"
     objecttolerance="10"
     gridtolerance="10"
     guidetolerance="10"
     inkscape:pageopacity="0"
     inkscape:pageshadow="2"
     inkscape:window-width="1920"
     inkscape:window-height="1056"
     id="namedview63"
     showgrid="false"
     showguides="true"
     inkscape:guide-bbox="true"
     inkscape:zoom="5.2149125"
     inkscape:cx="117.35953"
     inkscape:cy="40.445386"
     inkscape:window-x="1366"
     inkscape:window-y="24"
     inkscape:window-maximized="1"
     inkscape:current-layer="Layer_1" /><g
     id="g4201"
     transform="translate(-94.920097,47.562658)"><g
       transform="matrix(1.875,0,0,1.875,94.920097,-47.562658)"
       style="opacity:1;fill:#9d7322;fill-opacity:1"
       id="Handles"><g
         style="fill:#9d7322;fill-opacity:1"
         id="g4"><path
           inkscape:connector-curvature="0"
           id="path6"
           style="fill:#9d7322;fill-opacity:1"
           d="m 56,4 c -7,0 -8,6 -8,8 0,2 0,4 2,4 2,0 2,-2 2,-4 0,-2 1,-4 4,-4 3,0 4,2 4,4 0,10 -12,16 -18,16 L 22,28 C 16,28 4,22 4,12 4,10 5,8 8,8 c 3,0 4,2 4,4 0,2 0,4 2,4 2,0 2,-2 2,-4 C 16,10 15,4 8,4 3,4 0,8 0,12 0,24 14,32 22,32 l 20,0 C 50,32 64,24 64,12 64,8 61,4 56,4 Z" /></g></g><g
       transform="matrix(1.875,0,0,1.875,94.920097,-47.562658)"
       style="fill:#cb942b;fill-opacity:1"
       id="Cup"><g
         style="fill:#cb942b;fill-opacity:1"
         id="g9"><path
           inkscape:connector-curvature="0"
           id="path11"
           style="fill:#cb942b;fill-opacity:1"
           d="M 50,4 C 50,1.999 50,0 48,0 46,0 18,0 16,0 14,0 14,1.999 14,4 14,38 28,34 28,38 l 0,4 c 0,4 -6,2 -6,6 l 20,0 c 0,-4 -6,-2 -6,-6 l 0,-4 c 0,-4 14,0 14,-34 z" /></g></g><g
       transform="matrix(1.875,0,0,1.875,94.920097,-47.562658)"
       id="Stand"><g
         id="g14"><path
           inkscape:connector-curvature="0"
           id="path16"
           style="fill:#666666"
           d="m 50,52 -36,0 c -1.104,0 -2,0.895 -2,2 l 0,8 c 0,1.104 0.896,2 2,2 l 36,0 c 1.104,0 2,-0.896 2,-2 l 0,-8 c 0,-1.105 -0.896,-2 -2,-2 z" /></g></g><g
       transform="matrix(1.875,0,0,1.875,94.920097,-47.562658)"
       id="Plate"><g
         id="g19"><rect
           id="rect21"
           y="56"
           x="22"
           width="20"
           style="fill:#e6e6e6"
           height="4" /></g></g><g
       transform="matrix(1.875,0,0,1.875,94.920097,-47.562658)"
       style="opacity:1;fill:#9d7322;fill-opacity:1"
       id="Base_1_"><g
         style="fill:#9d7322;fill-opacity:1"
         id="g24"><path
           inkscape:connector-curvature="0"
           id="path26"
           style="clip-rule:evenodd;fill:#9d7322;fill-opacity:1;fill-rule:evenodd"
           d="m 42,48 -20,0 c 0,0 -6,0 -6,4 l 32,0 c 0,-4 -6,-4 -6,-4 z m -14,-6 8,0 c 1.104,0 2,-0.896 2,-2 0,-1.105 -0.896,-2 -2,-2 l -8,0 c -1.104,0 -2,0.895 -2,2 0,1.104 0.896,2 2,2 z" /></g></g><g
       style="opacity:1;fill:#9d7322;fill-opacity:1"
       transform="matrix(1.875,0,0,1.875,94.920097,-53.829479)"
       id="_x31_"><g
         style="fill:#9d7322;fill-opacity:1"
         id="g29"><text
           transform="scale(0.99497098,1.0050544)"
           sodipodi:linespacing="100%"
           id="text4195"
           y="22.848352"
           x="32.28817"
           style="font-style:normal;font-weight:normal;font-size:49.41717529px;line-height:100%;font-family:sans-serif;text-align:center;letter-spacing:0px;word-spacing:0px;writing-mode:lr-tb;text-anchor:middle;fill:#9d7322;fill-opacity:1;stroke:none;stroke-width:1px;stroke-linecap:butt;stroke-linejoin:miter;stroke-opacity:1"
           xml:space="preserve"><tspan
             style="font-style:normal;font-variant:normal;font-weight:bold;font-stretch:normal;font-size:20.07572746px;font-family:'Courier 10 Pitch';-inkscape-font-specification:'Courier 10 Pitch Bold';fill:#9d7322;fill-opacity:1"
             y="22.848352"
             x="32.28817"
             id="tspan4197"
             sodipodi:role="line">PG</tspan></text>
</g></g></g><g
     id="g33"
     transform="translate(0,56)" /><g
     id="g35"
     transform="translate(0,56)" /><g
     id="g37"
     transform="translate(0,56)" /><g
     id="g39"
     transform="translate(0,56)" /><g
     id="g41"
     transform="translate(0,56)" /><g
     id="g43"
     transform="translate(0,56)" /><g
     id="g45"
     transform="translate(0,56)" /><g
     id="g47"
     transform="translate(0,56)" /><g
     id="g49"
     transform="translate(0,56)" /><g
     id="g51"
     transform="translate(0,56)" /><g
     id="g53"
     transform="translate(0,56)" /><g
     id="g55"
     transform="translate(0,56)" /><g
     id="g57"
     transform="translate(0,56)" /><g
     id="g59"
     transform="translate(0,56)" /><g
     id="g61"
     transform="translate(0,56)" /></svg>