<?xml version="1.0" encoding="UTF-8" standalone="no"?>
<svg
   xmlns:dc="http://purl.org/dc/elements/1.1/"
   xmlns:cc="http://creativecommons.org/ns#"
   xmlns:rdf="http://www.w3.org/1999/02/22-rdf-syntax-ns#"
   xmlns:svg="http://www.w3.org/2000/svg"
   xmlns="http://www.w3.org/2000/svg"
   xmlns:sodipodi="http://sodipodi.sourceforge.net/DTD/sodipodi-0.dtd"
   xmlns:inkscape="http://www.inkscape.org/namespaces/inkscape"
   height="64px"
   id="Layer_1"
   style="enable-background:new 0 0 64 64;"
   version="1.1"
   viewBox="0 0 64 64"
   width="64px"
   xml:space="preserve"
   inkscape:version="0.91 r13725"
   sodipodi:docname="gold.svg"><metadata
     id="metadata67"><rdf:RDF><cc:Work
         rdf:about=""><dc:format>image/svg+xml</dc:format><dc:type
           rdf:resource="http://purl.org/dc/dcmitype/StillImage" /><dc:title></dc:title></cc:Work></rdf:RDF></metadata><defs
     id="defs65" /><sodipodi:namedview
     pagecolor="#ffffff"
     bordercolor="#666666"
     borderopacity="1"
     objecttolerance="10"
     gridtolerance="10"
     guidetolerance="10"
     inkscape:pageopacity="0"
     inkscape:pageshadow="2"
     inkscape:window-width="1305"
     inkscape:window-height="744"
     id="namedview63"
     showgrid="false"
     showguides="true"
     inkscape:guide-bbox="true"
     inkscape:zoom="5.2149125"
     inkscape:cx="15.27702"
     inkscape:cy="38.847028"
     inkscape:window-x="61"
     inkscape:window-y="24"
     inkscape:window-maximized="1"
     inkscape:current-layer="Layer_1" /><g
     id="Handles"
     style="fill:#bb9e00;fill-opacity:1;opacity:1"><g
       id="g4"
       style="fill:#bb9e00;fill-opacity:1"><path
         d="M56,4c-7,0-8,6-8,8s0,4,2,4s2-2,2-4s1-4,4-4s4,2,4,4c0,10-12,16-18,16H22c-6,0-18-6-18-16    c0-2,1-4,4-4s4,2,4,4s0,4,2,4s2-2,2-4s-1-8-8-8c-5,0-8,4-8,8c0,12,14,20,22,20h20c8,0,22-8,22-20C64,8,61,4,56,4z"
         style="fill:#bb9e00;fill-opacity:1"
         id="path6" /></g></g><g
     id="Cup"
     style="fill:#ffd700;fill-opacity:1"><g
       id="g9"
       style="fill:#ffd700;fill-opacity:1"><path
         d="M50,4c0-2.001,0-4-2-4S18,0,16,0s-2,1.999-2,4c0,34,14,30,14,34v4c0,4-6,2-6,6h20c0-4-6-2-6-6v-4    C36,34,50,38,50,4z"
         style="fill:#ffd700;fill-opacity:1"
         id="path11" /></g></g><g
     id="Stand"><g
       id="g14"><path
         d="M50,52H14c-1.104,0-2,0.895-2,2v8c0,1.104,0.896,2,2,2h36c1.104,0,2-0.896,2-2v-8    C52,52.895,51.104,52,50,52z"
         style="fill:#666666;"
         id="path16" /></g></g><g
     id="Plate"><g
       id="g19"><rect
         height="4"
         style="fill:#E6E6E6;"
         width="20"
         x="22"
         y="56"
         id="rect21" /></g></g><g
     id="Base_1_"
     style="fill:#bb9e00;fill-opacity:1;opacity:1"><g
       id="g24"
       style="fill:#bb9e00;fill-opacity:1"><path
         d="M42,48H22c0,0-6,0-6,4h32C48,48,42,48,42,48z M28,42h8    c1.104,0,2-0.896,2-2c0-1.105-0.896-2-2-2h-8c-1.104,0-2,0.895-2,2C26,41.104,26.896,42,28,42z"
         style="fill-rule:evenodd;clip-rule:evenodd;fill:#bb9e00;fill-opacity:1"
         id="path26" /></g></g><g
     id="_x31_"
     transform="translate(0,-3.3423044)"
     style="fill:#bb9e00;fill-opacity:1;opacity:1"><g
       id="g29"
       style="fill:#bb9e00;fill-opacity:1"><text
         xml:space="preserve"
         style="font-style:normal;font-weight:normal;font-size:49.41717529px;line-height:100%;font-family:sans-serif;text-align:center;letter-spacing:0px;word-spacing:0px;writing-mode:lr-tb;text-anchor:middle;fill:#bb9e00;fill-opacity:1;stroke:none;stroke-width:1px;stroke-linecap:butt;stroke-linejoin:miter;stroke-opacity:1"
         x="32.28817"
         y="22.848352"
         id="text4195"
         sodipodi:linespacing="100%"
         transform="scale(0.99497098,1.0050544)"><tspan
           sodipodi:role="line"
           id="tspan4197"
           x="32.28817"
           y="22.848352"
           style="font-style:normal;font-variant:normal;font-weight:bold;font-stretch:normal;font-size:20.07572746px;font-family:'Courier 10 Pitch';-inkscape-font-specification:'Courier 10 Pitch Bold';fill:#bb9e00;fill-opacity:1">PG</tspan></text>
</g></g><g
     id="g33" /><g
     id="g35" /><g
     id="g37" /><g
     id="g39" /><g
     id="g41" /><g
     id="g43" /><g
     id="g45" /><g
     id="g47" /><g
     id="g49" /><g
     id="g51" /><g
     id="g53" /><g
     id="g55" /><g
     id="g57" /><g
     id="g59" /><g
     id="g61" /></svg>